<svg xmlns="http://www.w3.org/2000/svg" width="730" height="640" viewBox="0 0 730 640" role="img" aria-labelledby="title desc">
  <title id="title">HxTradeHelper Trade tab</title>
  <desc id="desc">Sample MetaTrader chart with the Hx Helper trade panel, reference levels, fib labels, moving averages and an order block.</desc>
  <rect width="730" height="640" fill="#000"/>
  <g stroke="#444" stroke-width="1">
    <line x1="0" y1="285" x2="690" y2="285" stroke="#6d8ba8"/>
    <line x1="690" y1="0" x2="690" y2="640" stroke="#ddd"/>
  </g>
  <g fill="#ddd" font-family="Arial, sans-serif" font-size="9">
    <text x="694" y="14">52795.20</text><text x="694" y="46">52777.80</text><text x="694" y="78">52760.40</text>
    <text x="694" y="110">52743.00</text><text x="694" y="142">52725.60</text><text x="694" y="174">52708.20</text>
    <text x="694" y="206">52690.80</text><text x="694" y="238">52673.40</text><text x="694" y="270">52656.00</text>
    <text x="694" y="302">52638.60</text><text x="694" y="334">52621.20</text><text x="694" y="366">52603.80</text>
    <text x="694" y="398">52586.40</text><text x="694" y="430">52569.00</text><text x="694" y="462">52551.60</text>
    <text x="694" y="494">52534.20</text><text x="694" y="526">52516.80</text><text x="694" y="558">52499.40</text>
    <text x="694" y="590">52482.00</text><text x="694" y="622">52464.60</text>
  </g>
  <g stroke-width="1.1" fill="none">
    <path d="M0 173 C35 168 38 129 68 151 S107 215 140 194 161 133 186 167 239 170 251 145 289 137 314 157 336 209 355 190" stroke="#f00"/>
    <path d="M0 229 C39 218 65 205 98 209 S162 230 197 210 254 183 293 174 328 180 355 188" stroke="#001dff"/>
    <path d="M0 425 C85 400 153 385 226 364 S294 345 356 343" stroke="#d5a600"/>
  </g>
  <g stroke-width="2">
    <g stroke="#00ff00" fill="#00ff00">
      <line x1="36" y1="75" x2="36" y2="119"/><rect x="33" y="80" width="8" height="38"/>
      <line x1="45" y1="50" x2="45" y2="160"/><rect x="42" y="82" width="8" height="70"/>
      <line x1="122" y1="71" x2="122" y2="150"/><rect x="119" y="84" width="8" height="58"/>
      <line x1="141" y1="74" x2="141" y2="252"/><rect x="138" y="85" width="8" height="155"/>
      <line x1="207" y1="30" x2="207" y2="118"/><rect x="204" y="30" width="8" height="66"/>
      <line x1="309" y1="74" x2="309" y2="150"/><rect x="306" y="78" width="8" height="61"/>
      <line x1="285" y1="242" x2="285" y2="329"/><rect x="282" y="257" width="8" height="63"/>
      <line x1="346" y1="280" x2="346" y2="350"/><rect x="343" y="288" width="8" height="54"/>
    </g>
    <g stroke="#ffff00" fill="#ffff00">
      <line x1="3" y1="99" x2="3" y2="208"/><rect x="0" y="104" width="8" height="95"/>
      <line x1="59" y1="53" x2="59" y2="276"/><rect x="56" y="134" width="8" height="130"/>
      <line x1="77" y1="178" x2="77" y2="299"/><rect x="74" y="188" width="8" height="79"/>
      <line x1="91" y1="178" x2="91" y2="280"/><rect x="88" y="205" width="8" height="61"/>
      <line x1="218" y1="29" x2="218" y2="118"/><rect x="215" y="31" width="8" height="64"/>
      <line x1="247" y1="75" x2="247" y2="254"/><rect x="244" y="126" width="8" height="50"/>
      <line x1="256" y1="172" x2="256" y2="325"/><rect x="253" y="176" width="8" height="119"/>
      <line x1="322" y1="81" x2="322" y2="314"/><rect x="319" y="96" width="8" height="195"/>
      <line x1="337" y1="280" x2="337" y2="343"/><rect x="334" y="292" width="8" height="24"/>
    </g>
  </g>
  <g>
    <rect x="242" y="328" width="210" height="23" fill="#0011ad" opacity=".92"/>
    <circle cx="242" cy="328" r="2" fill="#fff"/><circle cx="452" cy="328" r="2" fill="#fff"/><circle cx="242" cy="351" r="2" fill="#fff"/><circle cx="452" cy="351" r="2" fill="#fff"/>
  </g>
  <g stroke="#f1a600" stroke-width="1.2" fill="none">
    <line x1="420" y1="67" x2="482" y2="67"/><text x="441" y="63" fill="#f1a600" font-family="Arial" font-size="10">TP1</text>
    <line x1="420" y1="180" x2="459" y2="294"/><line x1="420" y1="180" x2="466" y2="180"/><line x1="436" y1="236" x2="460" y2="236"/><line x1="420" y1="294" x2="460" y2="294"/>
    <text x="452" y="176" fill="#f1a600" font-family="Arial" font-size="10">E</text><text x="438" y="233" fill="#f1a600" font-family="Arial" font-size="10">50%</text>
  </g>
  <g transform="translate(530,80)" font-family="Arial, sans-serif" font-size="12">
    <rect width="148" height="468" fill="#f3f3f3" stroke="#aaa"/>
    <text x="6" y="17" fill="#222">Hx Helper</text><text x="111" y="18" fill="#777" font-weight="bold">-</text><text x="132" y="18" fill="#999" font-weight="bold">x</text>
    <g fill="#dbe5f1" stroke="#b5c2d1">
      <rect x="14" y="38" width="44" height="20"/><rect x="62" y="38" width="37" height="20"/><rect x="104" y="38" width="35" height="20"/>
      <rect x="14" y="70" width="130" height="20"/><rect x="14" y="100" width="130" height="20"/><rect x="14" y="130" width="130" height="20"/><rect x="14" y="160" width="130" height="20"/>
      <rect x="14" y="192" width="62" height="20"/><rect x="81" y="192" width="62" height="20"/><rect x="14" y="222" width="62" height="20"/><rect x="81" y="222" width="62" height="20"/>
      <rect x="14" y="254" width="130" height="20"/><rect x="14" y="286" width="62" height="20"/><rect x="81" y="286" width="62" height="20"/>
      <rect x="14" y="318" width="62" height="20"/><rect x="81" y="318" width="62" height="20"/><rect x="14" y="350" width="40" height="20"/><rect x="59" y="350" width="40" height="20"/><rect x="104" y="350" width="40" height="20"/>
      <rect x="14" y="382" width="62" height="20"/><rect x="81" y="382" width="62" height="20"/>
    </g>
    <g fill="#111" text-anchor="middle">
      <text x="36" y="53">Trade</text><text x="80" y="53">Test</text><text x="121" y="53">Jrnl</text>
      <text x="79" y="85">Yesterday</text><text x="79" y="115">Day Before</text><text x="79" y="145">Last Week</text><text x="79" y="175">Week Map</text>
      <text x="45" y="207">L1</text><text x="112" y="207">L2</text><text x="45" y="237">L3</text><text x="112" y="237">ATR</text><text x="79" y="269">Sessions</text>
      <text x="45" y="301">DOB</text><text x="112" y="301">H4OB</text><text x="45" y="333">H1OB</text><text x="112" y="333">SROB</text>
      <text x="34" y="365">M20</text><text x="79" y="365">M60</text><text x="124" y="365">M200</text><text x="45" y="397">Fib1</text><text x="112" y="397">Fib2</text>
    </g>
  </g>
</svg>
